<?xml version="1.0" encoding="utf-8"?>
<!-- Generator: Adobe Illustrator 16.0.0, SVG Export Plug-In . SVG Version: 6.00 Build 0)  -->
<!DOCTYPE svg PUBLIC "-//W3C//DTD SVG 1.1//EN" "http://www.w3.org/Graphics/SVG/1.1/DTD/svg11.dtd">
<svg version="1.1" id="Layer_1" xmlns="http://www.w3.org/2000/svg" xmlns:xlink="http://www.w3.org/1999/xlink" x="0px" y="0px"
	 width="841.89px" height="595.28px" viewBox="0 0 841.89 595.28" enable-background="new 0 0 841.89 595.28" xml:space="preserve">
<polygon fill="#353535" points="290.377,400.488 253.246,400.488 132.033,195.125 169.121,195.125 "/>
<polygon fill="#353535" points="117.914,400.367 80.77,400.367 171.705,239.001 199.861,254.858 "/>
<g>
	<path fill="#353535" d="M400.623,268.328v2.06h-45.01v-73.54h2.061v71.479H400.623z"/>
	<path fill="#353535" d="M415.661,246.184l-9.784,24.204h-2.369l29.869-73.54h2.678l29.045,73.54h-2.266l-9.682-24.204H415.661z
		 M452.328,244.124l-17.51-45.216h-0.205l-18.128,45.216H452.328z"/>
	<path fill="#353535" d="M540.495,196.849h3.399v73.54h-2.061v-70.965h-0.206l-31.208,47.088h-2.266l-31.209-47.088h-0.205v70.965
		h-2.061v-73.54h3.399l31.104,46.985h0.207L540.495,196.849z"/>
	<path fill="#353535" d="M559.449,196.849h31.619c11.536,0,20.703,6.077,20.703,18.333c0,8.858-6.592,16.171-15.553,16.789v0.206
		c9.578,0.309,17.818,6.901,17.818,18.23c0,13.184-10.094,19.981-24.204,19.981h-30.384V196.849z M561.509,231.043h29.56
		c9.785,0,18.643-5.356,18.643-15.862c0-11.124-8.137-16.273-18.643-16.273h-29.56V231.043z M561.509,268.328h29.251
		c11.947,0,21.217-5.768,21.217-17.818c0-12.875-10.505-17.406-20.908-17.406h-29.56V268.328z"/>
	<path fill="#353535" d="M628.252,196.849h25.75c14.625,0,31.311,7.828,31.311,36.77c0,26.367-16.788,36.77-34.504,36.77h-22.557
		V196.849z M630.313,268.328h21.011c17.407,0,31.93-11.021,31.93-34.71c0-27.5-15.038-34.71-29.767-34.71h-23.174V268.328z"/>
	<path fill="#353535" d="M705.502,246.184l-9.785,24.204h-2.369l29.869-73.54h2.678l29.046,73.54h-2.267l-9.682-24.204H705.502z
		 M742.169,244.124l-17.51-45.216h-0.206l-18.128,45.216H742.169z"/>
	<path fill="#353535" d="M404.743,341.048c-0.515-15.037-10.608-20.29-23.896-20.29c-10.402,0-23.071,3.708-23.071,16.892
		c0,13.286,12.772,14.831,25.337,17.818c13.699,3.502,25.132,5.149,25.132,20.496c0,13.904-13.39,19.775-25.956,19.775
		c-16.685,0-29.045-7.622-28.735-26.161h2.06c0,17.612,11.021,24.102,26.676,24.102c11.536,0,23.896-5.15,23.896-17.818
		c0-14.832-14.42-16.068-25.75-18.849c-11.947-2.781-24.719-4.944-24.719-19.363c0-14.626,13.286-18.952,25.131-18.952
		c14.42,0,25.234,5.871,25.955,22.351H404.743z"/>
	<path fill="#353535" d="M413.293,322.509v-2.061h55v2.061h-26.47v71.479h-2.06v-71.479H413.293z"/>
	<path fill="#353535" d="M526.076,320.448h2.061v46.143c0,19.467-9.682,29.148-26.986,29.148c-17.303,0-26.984-9.682-26.984-29.148
		v-46.143h2.06v46.143c0,17.51,8.137,27.089,24.925,27.089c16.789,0,24.926-9.579,24.926-27.089V320.448z"/>
	<path fill="#353535" d="M541.32,320.448h25.75c14.625,0,31.311,7.828,31.311,36.771c0,26.367-16.789,36.77-34.504,36.77H541.32
		V320.448z M543.381,391.929h21.012c17.406,0,31.928-11.021,31.928-34.71c0-27.5-15.037-34.71-29.766-34.71h-23.174V391.929z"/>
	<path fill="#353535" d="M610.125,320.448h2.059v73.54h-2.059V320.448z"/>
	<path fill="#353535" d="M656.987,318.697c22.042,0,33.886,17.613,33.886,38.521s-11.844,38.521-33.886,38.521
		c-22.041,0-33.886-17.612-33.886-38.521S634.946,318.697,656.987,318.697z M656.987,393.68c19.775,0,31.62-15.244,31.826-36.461
		c-0.206-21.218-12.051-36.461-31.826-36.461s-31.62,15.243-31.826,36.461C625.367,378.436,637.212,393.68,656.987,393.68z"/>
	<path fill="#353535" d="M750.819,341.048c-0.515-15.037-10.608-20.29-23.896-20.29c-10.402,0-23.071,3.708-23.071,16.892
		c0,13.286,12.771,14.831,25.337,17.818c13.699,3.502,25.132,5.149,25.132,20.496c0,13.904-13.39,19.775-25.955,19.775
		c-16.686,0-29.045-7.622-28.736-26.161h2.06c0,17.612,11.021,24.102,26.677,24.102c11.535,0,23.895-5.15,23.895-17.818
		c0-14.832-14.419-16.068-25.749-18.849c-11.947-2.781-24.719-4.944-24.719-19.363c0-14.626,13.286-18.952,25.131-18.952
		c14.42,0,25.234,5.871,25.955,22.351H750.819z"/>
</g>
<g>
	<g>
		<path fill="#FFFFFF" d="M429.002,263.025c3.225,0,3.225-5,0-5S425.777,263.025,429.002,263.025L429.002,263.025z"/>
	</g>
</g>
</svg>
